<svg xmlns="http://www.w3.org/2000/svg" width="1280" height="760" viewBox="0 0 1280 760" role="img" aria-labelledby="title desc">
  <title id="title">Smart Home im Garten und Außenbereich</title>
  <desc id="desc">Garten und Außenbereich mit Wegebeleuchtung, Bewässerung, Außensteckdose, Kamera, Sensoren, Außen-Access-Point und Smart-Home-Zentrale.</desc>
  <rect width="1280" height="760" fill="#f8fafc"/>
  <rect x="70" y="70" width="1140" height="620" rx="18" fill="#fff" stroke="#cbd5e1" stroke-width="2"/>
  <text x="640" y="118" text-anchor="middle" font-family="Arial, sans-serif" font-size="34" font-weight="700" fill="#0b1220">Smart Home im Garten und Außenbereich</text>
  <rect x="150" y="470" width="980" height="120" rx="18" fill="#ecfdf5" stroke="#22c55e" stroke-width="4"/>
  <path d="M255 385 485 280l230 105" fill="none" stroke="#0b1220" stroke-width="10" stroke-linecap="round" stroke-linejoin="round"/>
  <rect x="310" y="385" width="350" height="145" fill="#f8fafc" stroke="#0b1220" stroke-width="5"/>
  <rect x="445" y="430" width="74" height="100" rx="5" fill="#0b1220"/>
  <g fill="#fef9c3" stroke="#eab308" stroke-width="4">
    <circle cx="785" cy="475" r="26"/>
    <circle cx="890" cy="475" r="26"/>
    <circle cx="995" cy="475" r="26"/>
  </g>
  <g stroke="#06b6d4" stroke-width="5" fill="none" stroke-linecap="round">
    <path d="M245 500c40-50 80-50 120 0"/>
    <path d="M230 500c55-80 110-80 165 0"/>
    <path d="M250 500v58"/>
    <path d="M1010 346c38-36 82-36 120 0"/>
    <path d="M1030 374c22-20 52-20 75 0"/>
  </g>
  <g fill="#ecfeff" stroke="#06b6d4" stroke-width="4">
    <rect x="975" y="270" width="92" height="62" rx="14"/>
    <rect x="700" y="350" width="92" height="58" rx="14"/>
  </g>
  <rect x="865" y="330" width="72" height="52" rx="12" fill="#fff7ed" stroke="#f97316" stroke-width="4"/>
  <rect x="175" y="340" width="92" height="62" rx="14" fill="#ecfdf5" stroke="#22c55e" stroke-width="4"/>
  <g stroke="#22c55e" stroke-width="5" fill="none" stroke-linecap="round" stroke-linejoin="round">
    <path d="M485 430c150-120 300-150 536-130"/>
    <path d="M485 430c82 70 250 90 505 45"/>
    <path d="M250 500c155 20 310 10 535-25"/>
  </g>
  <g font-family="Arial, sans-serif" fill="#0b1220" text-anchor="middle">
    <text x="785" y="481" font-size="13" font-weight="700">Licht</text>
    <text x="890" y="481" font-size="13" font-weight="700">Weg</text>
    <text x="995" y="481" font-size="13" font-weight="700">Szene</text>
    <text x="251" y="536" font-size="14" font-weight="700">Bewässerung</text>
    <text x="1021" y="306" font-size="13" font-weight="700">Außen-AP</text>
    <text x="746" y="384" font-size="13" font-weight="700">Steckdose</text>
    <text x="901" y="363" font-size="13" font-weight="700">Kamera</text>
    <text x="221" y="376" font-size="13" font-weight="700">Sensor</text>
    <text x="640" y="650" font-size="18" font-weight="700">Außenlicht, Wasser, Netzwerk und Sicherheit zusammen planen.</text>
  </g>
</svg>
