<svg xmlns="http://www.w3.org/2000/svg" width="1280" height="760" viewBox="0 0 1280 760" role="img" aria-labelledby="title desc">
  <title id="title">Energiemanagement im Smart Home</title>
  <desc id="desc">Haus mit Photovoltaik, Stromspeicher, Wallbox, Elektroauto, Wärmepumpe, smarten Verbrauchern, zentraler Visualisierung und Energieflüssen.</desc>
  <rect width="1280" height="760" fill="#f8fafc"/>
  <rect x="70" y="70" width="1140" height="620" rx="18" fill="#fff" stroke="#cbd5e1" stroke-width="2"/>
  <text x="640" y="118" text-anchor="middle" font-family="Arial, sans-serif" font-size="34" font-weight="700" fill="#0b1220">Energiemanagement im Smart Home</text>
  <path d="M235 330 640 155l405 175" fill="none" stroke="#0b1220" stroke-width="14" stroke-linecap="round" stroke-linejoin="round"/>
  <rect x="305" y="330" width="670" height="250" fill="#f8fafc" stroke="#0b1220" stroke-width="5"/>
  <g fill="#ecfeff" stroke="#06b6d4" stroke-width="4">
    <rect x="485" y="205" width="310" height="64" rx="10"/>
    <path d="M510 205v64M570 205v64M630 205v64M690 205v64M750 205v64"/>
  </g>
  <g fill="#ecfdf5" stroke="#22c55e" stroke-width="4">
    <rect x="380" y="420" width="115" height="82" rx="12"/>
    <rect x="560" y="420" width="160" height="82" rx="12"/>
    <rect x="790" y="420" width="115" height="82" rx="12"/>
    <rect x="1010" y="468" width="142" height="86" rx="16"/>
    <rect x="134" y="460" width="142" height="94" rx="16"/>
  </g>
  <path d="M1032 554h88" stroke="#0b1220" stroke-width="5" stroke-linecap="round"/>
  <circle cx="1048" cy="564" r="14" fill="#0b1220"/>
  <circle cx="1105" cy="564" r="14" fill="#0b1220"/>
  <g stroke="#22c55e" stroke-width="5" fill="none" stroke-linecap="round" stroke-linejoin="round">
    <path d="M640 270v150"/>
    <path d="M560 462H495"/>
    <path d="M720 462h70"/>
    <path d="M905 462c62 0 80 24 105 46"/>
    <path d="M380 462c-58 0-76 14-104 45"/>
  </g>
  <g fill="#22c55e">
    <path d="M640 420l-9-16h18z"/>
    <path d="M495 462l14-8v16z"/>
    <path d="M790 462l-14-8v16z"/>
    <path d="M1010 508l-16-3 9 14z"/>
    <path d="M276 507l16-3-9 14z"/>
  </g>
  <g font-family="Arial, sans-serif" fill="#0b1220" text-anchor="middle">
    <text x="640" y="246" font-size="18" font-weight="700">PV-Anlage</text>
    <text x="438" y="455" font-size="16" font-weight="700">Speicher</text>
    <text x="640" y="455" font-size="16" font-weight="700">Visualisierung</text>
    <text x="640" y="482" font-size="13">Home Assistant</text>
    <text x="848" y="455" font-size="16" font-weight="700">Wärmepumpe</text>
    <text x="1081" y="503" font-size="16" font-weight="700">Wallbox</text>
    <text x="1081" y="529" font-size="13">E-Auto</text>
    <text x="205" y="498" font-size="16" font-weight="700">Verbraucher</text>
    <text x="205" y="525" font-size="13">zeit- oder überschussabhängig</text>
    <text x="640" y="650" font-size="18" font-weight="700">Energieflüsse sichtbar machen und Verbraucher sinnvoll priorisieren</text>
  </g>
</svg>
